<svg width="270" height="98" viewBox="0 0 270 98" fill="none" xmlns="http://www.w3.org/2000/svg">
<mask id="path-1-inside-1" fill="white">
<path fill-rule="evenodd" clip-rule="evenodd" d="M134.999 0C132.348 0 130.199 2.14904 130.199 4.8V19.2002H115.8C113.149 19.2002 111 21.3492 111 24.0002C111 26.6512 113.149 28.8002 115.8 28.8002H130.199V43.2C130.199 45.851 132.348 48 134.999 48C137.65 48 139.799 45.851 139.799 43.2V28.8002H154.2C156.851 28.8002 159 26.6512 159 24.0002C159 21.3492 156.851 19.2002 154.2 19.2002H139.799V4.8C139.799 2.14903 137.65 0 134.999 0Z"/>
</mask>
<path d="M130.199 19.2002V20.2002H131.199V19.2002H130.199ZM115.8 28.8002L115.8 29.8002H115.8V28.8002ZM130.199 28.8002H131.199V27.8002H130.199V28.8002ZM139.799 28.8002V27.8002H138.799V28.8002H139.799ZM139.799 19.2002H138.799V20.2002H139.799V19.2002ZM131.199 4.8C131.199 2.70132 132.901 1 134.999 1V-1C131.796 -1 129.199 1.59675 129.199 4.8H131.199ZM131.199 19.2002V4.8H129.199V19.2002H131.199ZM115.8 20.2002H130.199V18.2002H115.8V20.2002ZM112 24.0002C112 21.9015 113.701 20.2002 115.8 20.2002V18.2002C112.597 18.2002 110 20.7969 110 24.0002H112ZM115.8 27.8002C113.701 27.8002 112 26.0989 112 24.0002H110C110 27.2034 112.597 29.8002 115.8 29.8002L115.8 27.8002ZM130.199 27.8002H115.8V29.8002H130.199V27.8002ZM131.199 43.2V28.8002H129.199V43.2H131.199ZM134.999 47C132.901 47 131.199 45.2987 131.199 43.2H129.199C129.199 46.4033 131.796 49 134.999 49V47ZM138.799 43.2C138.799 45.2987 137.098 47 134.999 47V49C138.202 49 140.799 46.4032 140.799 43.2H138.799ZM138.799 28.8002V43.2H140.799V28.8002H138.799ZM154.2 27.8002H139.799V29.8002H154.2V27.8002ZM158 24.0002C158 26.0989 156.299 27.8002 154.2 27.8002V29.8002C157.403 29.8002 160 27.2035 160 24.0002H158ZM154.2 20.2002C156.299 20.2002 158 21.9015 158 24.0002H160C160 20.7969 157.403 18.2002 154.2 18.2002V20.2002ZM139.799 20.2002H154.2V18.2002H139.799V20.2002ZM138.799 4.8V19.2002H140.799V4.8H138.799ZM134.999 1C137.098 1 138.799 2.70132 138.799 4.8H140.799C140.799 1.59675 138.202 -1 134.999 -1V1Z" fill="#5A8BF3" mask="url(#path-1-inside-1)"/>
<path d="M1.26063 81.8H9.50063V93H7.66063V83.56H3.10063V93H1.26063V81.8ZM19.361 89.736H12.993C13.121 90.3333 13.409 90.7973 13.857 91.128C14.3157 91.4587 14.881 91.624 15.553 91.624C16.4597 91.624 17.1477 91.2933 17.617 90.632L19.041 91.464C18.2623 92.6267 17.0943 93.208 15.537 93.208C14.2463 93.208 13.1957 92.8133 12.385 92.024C11.585 91.224 11.185 90.216 11.185 89C11.185 87.816 11.5797 86.8187 12.369 86.008C13.1477 85.1973 14.161 84.792 15.409 84.792C16.5717 84.792 17.5317 85.2027 18.289 86.024C19.0463 86.8453 19.425 87.8427 19.425 89.016C19.425 89.2293 19.4037 89.4693 19.361 89.736ZM12.977 88.328H17.681C17.5637 87.6987 17.297 87.2133 16.881 86.872C16.4757 86.5307 15.9797 86.36 15.393 86.36C14.753 86.36 14.2197 86.536 13.793 86.888C13.3663 87.24 13.0943 87.72 12.977 88.328ZM25.4735 84.792C26.5615 84.792 27.5002 85.2027 28.2895 86.024C29.0682 86.8347 29.4575 87.8267 29.4575 89C29.4575 90.184 29.0682 91.1813 28.2895 91.992C27.5108 92.8027 26.5722 93.208 25.4735 93.208C24.2682 93.208 23.3348 92.76 22.6735 91.864V96.2H20.9455V85H22.6735V86.152C23.3242 85.2453 24.2575 84.792 25.4735 84.792ZM23.3935 90.84C23.8735 91.32 24.4762 91.56 25.2015 91.56C25.9268 91.56 26.5295 91.32 27.0095 90.84C27.4895 90.3493 27.7295 89.736 27.7295 89C27.7295 88.264 27.4895 87.656 27.0095 87.176C26.5295 86.6853 25.9268 86.44 25.2015 86.44C24.4762 86.44 23.8735 86.6853 23.3935 87.176C22.9135 87.656 22.6735 88.264 22.6735 89C22.6735 89.7253 22.9135 90.3387 23.3935 90.84ZM38.7516 89.736H32.3836C32.5116 90.3333 32.7996 90.7973 33.2476 91.128C33.7063 91.4587 34.2716 91.624 34.9436 91.624C35.8503 91.624 36.5383 91.2933 37.0076 90.632L38.4316 91.464C37.653 92.6267 36.485 93.208 34.9276 93.208C33.637 93.208 32.5863 92.8133 31.7756 92.024C30.9756 91.224 30.5756 90.216 30.5756 89C30.5756 87.816 30.9703 86.8187 31.7596 86.008C32.5383 85.1973 33.5516 84.792 34.7996 84.792C35.9623 84.792 36.9223 85.2027 37.6796 86.024C38.437 86.8453 38.8156 87.8427 38.8156 89.016C38.8156 89.2293 38.7943 89.4693 38.7516 89.736ZM32.3676 88.328H37.0716C36.9543 87.6987 36.6876 87.2133 36.2716 86.872C35.8663 86.5307 35.3703 86.36 34.7836 86.36C34.1436 86.36 33.6103 86.536 33.1836 86.888C32.757 87.24 32.485 87.72 32.3676 88.328ZM45.7281 88.184V85H47.4561V93H45.7281V89.816H42.0641V93H40.3361V85H42.0641V88.184H45.7281ZM57.1891 89.736H50.8211C50.9491 90.3333 51.2371 90.7973 51.6851 91.128C52.1438 91.4587 52.7091 91.624 53.3811 91.624C54.2878 91.624 54.9758 91.2933 55.4451 90.632L56.8691 91.464C56.0905 92.6267 54.9225 93.208 53.3651 93.208C52.0745 93.208 51.0238 92.8133 50.2131 92.024C49.4131 91.224 49.0131 90.216 49.0131 89C49.0131 87.816 49.4078 86.8187 50.1971 86.008C50.9758 85.1973 51.9891 84.792 53.2371 84.792C54.3998 84.792 55.3598 85.2027 56.1171 86.024C56.8745 86.8453 57.2531 87.8427 57.2531 89.016C57.2531 89.2293 57.2318 89.4693 57.1891 89.736ZM50.8051 88.328H55.5091C55.3918 87.6987 55.1251 87.2133 54.7091 86.872C54.3038 86.5307 53.8078 86.36 53.2211 86.36C52.5811 86.36 52.0478 86.536 51.6211 86.888C51.1945 87.24 50.9225 87.72 50.8051 88.328ZM62.5028 93.208C61.2974 93.208 60.2894 92.8027 59.4788 91.992C58.6788 91.1707 58.2788 90.1733 58.2788 89C58.2788 87.8053 58.6788 86.808 59.4788 86.008C60.2894 85.1973 61.2974 84.792 62.5028 84.792C63.2814 84.792 63.9908 84.9787 64.6308 85.352C65.2708 85.7253 65.7508 86.2267 66.0708 86.856L64.5828 87.72C64.4014 87.336 64.1241 87.0373 63.7508 86.824C63.3881 86.6 62.9668 86.488 62.4868 86.488C61.7828 86.488 61.1908 86.728 60.7108 87.208C60.2414 87.6987 60.0068 88.296 60.0068 89C60.0068 89.704 60.2414 90.3013 60.7108 90.792C61.1908 91.272 61.7828 91.512 62.4868 91.512C62.9561 91.512 63.3774 91.4053 63.7508 91.192C64.1348 90.968 64.4228 90.664 64.6148 90.28L66.1028 91.128C65.7614 91.768 65.2654 92.2747 64.6148 92.648C63.9748 93.0213 63.2708 93.208 62.5028 93.208ZM69.0946 90.072L73.1906 85H74.5186V93H72.8226V87.912L68.7266 93H67.3986V85H69.0946V90.072ZM75.6756 85H82.6356V86.664H80.0276V93H78.2996V86.664H75.6756V85ZM91.2204 89.736H84.8524C84.9804 90.3333 85.2684 90.7973 85.7164 91.128C86.175 91.4587 86.7404 91.624 87.4124 91.624C88.319 91.624 89.007 91.2933 89.4764 90.632L90.9004 91.464C90.1217 92.6267 88.9537 93.208 87.3964 93.208C86.1057 93.208 85.055 92.8133 84.2444 92.024C83.4444 91.224 83.0444 90.216 83.0444 89C83.0444 87.816 83.439 86.8187 84.2284 86.008C85.007 85.1973 86.0204 84.792 87.2684 84.792C88.431 84.792 89.391 85.2027 90.1484 86.024C90.9057 86.8453 91.2844 87.8427 91.2844 89.016C91.2844 89.2293 91.263 89.4693 91.2204 89.736ZM84.8364 88.328H89.5404C89.423 87.6987 89.1564 87.2133 88.7404 86.872C88.335 86.5307 87.839 86.36 87.2524 86.36C86.6124 86.36 86.079 86.536 85.6524 86.888C85.2257 87.24 84.9537 87.72 84.8364 88.328ZM102.197 88.184V85H103.925V93H102.197V89.816H98.5329V93H96.8049V85H98.5329V88.184H102.197ZM113.658 89.736H107.29C107.418 90.3333 107.706 90.7973 108.154 91.128C108.613 91.4587 109.178 91.624 109.85 91.624C110.757 91.624 111.445 91.2933 111.914 90.632L113.338 91.464C112.559 92.6267 111.391 93.208 109.834 93.208C108.543 93.208 107.493 92.8133 106.682 92.024C105.882 91.224 105.482 90.216 105.482 89C105.482 87.816 105.877 86.8187 106.666 86.008C107.445 85.1973 108.458 84.792 109.706 84.792C110.869 84.792 111.829 85.2027 112.586 86.024C113.343 86.8453 113.722 87.8427 113.722 89.016C113.722 89.2293 113.701 89.4693 113.658 89.736ZM107.274 88.328H111.978C111.861 87.6987 111.594 87.2133 111.178 86.872C110.773 86.5307 110.277 86.36 109.69 86.36C109.05 86.36 108.517 86.536 108.09 86.888C107.663 87.24 107.391 87.72 107.274 88.328ZM118.908 93.208C117.692 93.208 116.689 92.8133 115.9 92.024C115.132 91.224 114.748 90.2053 114.748 88.968C114.748 87.624 114.95 86.5787 115.356 85.832C115.75 85.096 116.572 84.4187 117.82 83.8C117.862 83.7787 117.932 83.7467 118.028 83.704C118.134 83.6507 118.246 83.5973 118.364 83.544C118.481 83.4907 118.598 83.4373 118.716 83.384C119.164 83.1813 119.441 83.0533 119.548 83C119.612 82.968 119.798 82.8507 120.108 82.648C120.481 82.3813 120.732 82.0027 120.86 81.512L122.267 82.328C122.214 82.9147 121.846 83.4533 121.164 83.944C121.046 84.0507 120.828 84.1787 120.508 84.328L119.82 84.648L119.02 84.984C118.326 85.2613 117.814 85.544 117.484 85.832C117.153 86.12 116.924 86.488 116.796 86.936C117.436 86.2107 118.305 85.848 119.404 85.848C120.342 85.848 121.158 86.184 121.852 86.856C122.556 87.528 122.908 88.3973 122.908 89.464C122.908 90.552 122.534 91.448 121.788 92.152C121.052 92.856 120.092 93.208 118.908 93.208ZM118.891 91.592C119.564 91.592 120.113 91.3947 120.54 91C120.966 90.5947 121.18 90.0827 121.18 89.464C121.18 88.8347 120.966 88.3173 120.54 87.912C120.124 87.5067 119.58 87.304 118.908 87.304C118.31 87.304 117.772 87.496 117.292 87.88C116.812 88.2427 116.572 88.744 116.572 89.384C116.572 90.024 116.796 90.552 117.244 90.968C117.692 91.384 118.241 91.592 118.891 91.592ZM127.856 88.904L130.848 93H128.848L126.864 90.264L124.864 93H122.848L125.856 88.888L123.008 85H125.008L126.848 87.528L128.688 85H130.704L127.856 88.904ZM138.198 91.992C137.387 92.8027 136.39 93.208 135.206 93.208C134.022 93.208 133.025 92.8027 132.214 91.992C131.393 91.1707 130.982 90.1733 130.982 89C130.982 87.8267 131.393 86.8293 132.214 86.008C133.025 85.1973 134.022 84.792 135.206 84.792C136.39 84.792 137.387 85.1973 138.198 86.008C139.019 86.8293 139.43 87.8267 139.43 89C139.43 90.1733 139.019 91.1707 138.198 91.992ZM132.71 89C132.71 89.7253 132.95 90.328 133.43 90.808C133.91 91.288 134.502 91.528 135.206 91.528C135.91 91.528 136.502 91.288 136.982 90.808C137.462 90.328 137.702 89.7253 137.702 89C137.702 88.2747 137.462 87.672 136.982 87.192C136.502 86.712 135.91 86.472 135.206 86.472C134.502 86.472 133.91 86.712 133.43 87.192C132.95 87.672 132.71 88.2747 132.71 89ZM147.72 85V91.368H148.792V95.144H147.096V93H141.608V95.144H139.912V91.368H140.888C141.379 90.6853 141.624 89.72 141.624 88.472V85H147.72ZM142.792 91.368H146.024V86.584H143.32V88.472C143.32 89.624 143.144 90.5893 142.792 91.368ZM151.892 90.072L155.988 85H157.316V93H155.62V87.912L151.524 93H150.196V85H151.892V90.072ZM165.721 85H167.481V93H165.801V87.736L163.497 91.4H163.289L161.001 87.752V93H159.321V85H161.081L163.401 88.696L165.721 85ZM171.205 87.72H172.965C173.829 87.72 174.527 87.9653 175.061 88.456C175.605 88.936 175.877 89.5707 175.877 90.36C175.877 91.1387 175.605 91.7733 175.061 92.264C174.527 92.7547 173.829 93 172.965 93H169.477V85H171.205V87.72ZM176.837 93V85H178.565V93H176.837ZM171.205 91.448H172.981C173.322 91.448 173.605 91.3467 173.829 91.144C174.063 90.9413 174.181 90.68 174.181 90.36C174.181 90.04 174.069 89.7787 173.845 89.576C173.621 89.3733 173.333 89.272 172.981 89.272H171.205V91.448ZM186.363 83.88H181.883V82.376H186.363V83.88ZM182.267 90.072L186.363 85H187.691V93H185.995V87.912L181.899 93H180.571V85H182.267V90.072ZM199.232 88.888C200.021 89.2613 200.416 89.8747 200.416 90.728C200.416 91.4107 200.181 91.96 199.712 92.376C199.253 92.792 198.613 93 197.792 93H193.696V85H197.472C198.282 85 198.917 85.2027 199.376 85.608C199.834 86.0133 200.064 86.5467 200.064 87.208C200.064 87.9653 199.786 88.5253 199.232 88.888ZM197.344 86.472H195.344V88.248H197.344C198.048 88.248 198.4 87.9493 198.4 87.352C198.4 86.7653 198.048 86.472 197.344 86.472ZM195.344 91.496H197.632C198.357 91.496 198.72 91.1813 198.72 90.552C198.72 90.2747 198.624 90.0613 198.432 89.912C198.24 89.752 197.973 89.672 197.632 89.672H195.344V91.496ZM208.157 86.136V85H209.885V93H208.157V91.848C207.506 92.7547 206.573 93.208 205.357 93.208C204.258 93.208 203.319 92.8027 202.541 91.992C201.762 91.1813 201.373 90.184 201.373 89C201.373 87.816 201.762 86.8187 202.541 86.008C203.319 85.1973 204.258 84.792 205.357 84.792C206.573 84.792 207.506 85.24 208.157 86.136ZM203.821 90.84C204.301 91.32 204.903 91.56 205.629 91.56C206.354 91.56 206.957 91.32 207.437 90.84C207.917 90.3493 208.157 89.736 208.157 89C208.157 88.264 207.917 87.656 207.437 87.176C206.957 86.6853 206.354 86.44 205.629 86.44C204.903 86.44 204.301 86.6853 203.821 87.176C203.341 87.656 203.101 88.264 203.101 89C203.101 89.7253 203.341 90.3387 203.821 90.84ZM218.299 85H220.059V93H218.379V87.736L216.075 91.4H215.867L213.579 87.752V93H211.899V85H213.659L215.979 88.696L218.299 85ZM225.207 85H232.167V86.664H229.559V93H227.831V86.664H225.207V85ZM239.792 91.992C238.981 92.8027 237.984 93.208 236.8 93.208C235.616 93.208 234.618 92.8027 233.808 91.992C232.986 91.1707 232.576 90.1733 232.576 89C232.576 87.8267 232.986 86.8293 233.808 86.008C234.618 85.1973 235.616 84.792 236.8 84.792C237.984 84.792 238.981 85.1973 239.792 86.008C240.613 86.8293 241.024 87.8267 241.024 89C241.024 90.1733 240.613 91.1707 239.792 91.992ZM234.304 89C234.304 89.7253 234.544 90.328 235.024 90.808C235.504 91.288 236.096 91.528 236.8 91.528C237.504 91.528 238.096 91.288 238.576 90.808C239.056 90.328 239.296 89.7253 239.296 89C239.296 88.2747 239.056 87.672 238.576 87.192C238.096 86.712 237.504 86.472 236.8 86.472C236.096 86.472 235.504 86.712 235.024 87.192C234.544 87.672 234.304 88.2747 234.304 89ZM248.122 88.888C248.911 89.2613 249.306 89.8747 249.306 90.728C249.306 91.4107 249.071 91.96 248.602 92.376C248.143 92.792 247.503 93 246.682 93H242.586V85H246.362C247.173 85 247.807 85.2027 248.266 85.608C248.725 86.0133 248.954 86.5467 248.954 87.208C248.954 87.9653 248.677 88.5253 248.122 88.888ZM246.234 86.472H244.234V88.248H246.234C246.938 88.248 247.29 87.9493 247.29 87.352C247.29 86.7653 246.938 86.472 246.234 86.472ZM244.234 91.496H246.522C247.247 91.496 247.61 91.1813 247.61 90.552C247.61 90.2747 247.514 90.0613 247.322 89.912C247.13 89.752 246.863 89.672 246.522 89.672H244.234V91.496ZM257.047 86.136V85H258.775V93H257.047V91.848C256.396 92.7547 255.463 93.208 254.247 93.208C253.148 93.208 252.21 92.8027 251.431 91.992C250.652 91.1813 250.263 90.184 250.263 89C250.263 87.816 250.652 86.8187 251.431 86.008C252.21 85.1973 253.148 84.792 254.247 84.792C255.463 84.792 256.396 85.24 257.047 86.136ZM252.711 90.84C253.191 91.32 253.794 91.56 254.519 91.56C255.244 91.56 255.847 91.32 256.327 90.84C256.807 90.3493 257.047 89.736 257.047 89C257.047 88.264 256.807 87.656 256.327 87.176C255.847 86.6853 255.244 86.44 254.519 86.44C253.794 86.44 253.191 86.6853 252.711 87.176C252.231 87.656 251.991 88.264 251.991 89C251.991 89.7253 252.231 90.3387 252.711 90.84ZM265.317 84.792C266.405 84.792 267.344 85.2027 268.133 86.024C268.912 86.8347 269.301 87.8267 269.301 89C269.301 90.184 268.912 91.1813 268.133 91.992C267.355 92.8027 266.416 93.208 265.317 93.208C264.112 93.208 263.179 92.76 262.517 91.864V96.2H260.789V85H262.517V86.152C263.168 85.2453 264.101 84.792 265.317 84.792ZM263.237 90.84C263.717 91.32 264.32 91.56 265.045 91.56C265.771 91.56 266.373 91.32 266.853 90.84C267.333 90.3493 267.573 89.736 267.573 89C267.573 88.264 267.333 87.656 266.853 87.176C266.373 86.6853 265.771 86.44 265.045 86.44C264.32 86.44 263.717 86.6853 263.237 87.176C262.757 87.656 262.517 88.264 262.517 89C262.517 89.7253 262.757 90.3387 263.237 90.84Z" fill="#5A8BF3"/>
</svg>
