<svg width="16" height="16" viewBox="0 0 16 16" fill="none" xmlns="http://www.w3.org/2000/svg">
<path d="M15.8198 7.8063C16.0601 7.5644 16.0601 7.17221 15.8198 6.93031L10.7257 1.80285C10.2045 1.27813 9.76978 0.840565 9.3783 0.539916C8.96509 0.222579 8.52852 0 8 0C7.47148 0 7.0349 0.222579 6.62169 0.539917C6.23021 0.840569 5.79554 1.27813 5.27426 1.80286L0.180242 6.93031C-0.0600807 7.17221 -0.0600807 7.5644 0.180242 7.8063C0.420565 8.0482 0.810205 8.0482 1.05053 7.8063L1.40307 7.45145V10.1628C1.40307 12.8243 3.22306 15.1356 5.7973 15.7434C7.2461 16.0855 8.75389 16.0855 10.2027 15.7434C12.7769 15.1356 14.5969 12.8243 14.5969 10.1628V7.45143L14.9495 7.8063C15.1898 8.0482 15.5794 8.0482 15.8198 7.8063Z" fill="#5A8BF3" fill-opacity="0.8"/>
</svg>
