<svg width="16" height="16" viewBox="0 0 16 16" fill="none" xmlns="http://www.w3.org/2000/svg">
<path fill-rule="evenodd" clip-rule="evenodd" d="M10.6402 0.30551C8.90365 -0.101837 7.09636 -0.101837 5.35978 0.30551C2.85193 0.893773 0.893774 2.85192 0.305511 5.35978C-0.101837 7.09636 -0.101837 8.90365 0.305511 10.6402C0.893774 13.1481 2.85193 15.1062 5.35978 15.6945C7.09636 16.1018 8.90365 16.1018 10.6402 15.6945C13.1481 15.1062 15.1062 13.1481 15.6945 10.6402C16.1018 8.90365 16.1018 7.09636 15.6945 5.35978C15.1062 2.85193 13.1481 0.893773 10.6402 0.30551ZM7.14695 4.59527C7.38126 4.82958 7.38126 5.20948 7.14695 5.4438L5.44511 7.14564C5.33259 7.25816 5.17997 7.32137 5.02084 7.32137C4.86171 7.32137 4.7091 7.25816 4.59658 7.14564L3.74566 6.29472C3.51134 6.0604 3.51134 5.6805 3.74566 5.44619C3.97997 5.21187 4.35987 5.21187 4.59419 5.44619C4.82982 5.68183 5.21186 5.68183 5.4475 5.44619L6.29842 4.59527C6.53274 4.36095 6.91264 4.36095 7.14695 4.59527ZM8.24999 6.29591C8.24999 5.96454 8.51862 5.69591 8.84999 5.69591H11.8282C12.1596 5.69591 12.4282 5.96454 12.4282 6.29591C12.4282 6.62728 12.1596 6.89591 11.8282 6.89591H8.84999C8.51862 6.89591 8.24999 6.62728 8.24999 6.29591ZM7.14695 8.84987C7.38126 9.08419 7.38126 9.46409 7.14695 9.6984L5.44511 11.4002C5.21079 11.6346 4.83089 11.6346 4.59658 11.4002L3.74566 10.5493C3.51134 10.315 3.51134 9.93511 3.74566 9.7008C3.97997 9.46648 4.35987 9.46648 4.59419 9.7008C4.82982 9.93643 5.21186 9.93643 5.4475 9.7008L6.29842 8.84987C6.53274 8.61556 6.91264 8.61556 7.14695 8.84987ZM8.24999 10.5505C8.24999 10.2191 8.51862 9.95052 8.84999 9.95052H11.8282C12.1596 9.95052 12.4282 10.2191 12.4282 10.5505C12.4282 10.8819 12.1596 11.1505 11.8282 11.1505H8.84999C8.51862 11.1505 8.24999 10.8819 8.24999 10.5505Z" fill="#878787" fill-opacity="0.8"/>
</svg>
