<svg width="16" height="16" viewBox="0 0 16 16" fill="none" xmlns="http://www.w3.org/2000/svg">
<path fill-rule="evenodd" clip-rule="evenodd" d="M11.9764 3.17253C11.6794 1.72544 10.5773 0.535053 9.08973 0.141616C8.37582 -0.0472052 7.62417 -0.0472053 6.91026 0.141616C5.42272 0.535053 4.32058 1.72544 4.02357 3.17253C2.43502 3.59032 1.14717 4.73656 0.559787 6.24738C1.58442 6.62499 2.73224 6.91163 3.94388 7.10729V6.83205C3.94388 6.48279 4.23062 6.19965 4.58432 6.19965C4.93803 6.19965 5.22476 6.48279 5.22476 6.83205V7.27799C7.04432 7.47115 8.95568 7.47115 10.7752 7.27799V6.83205C10.7752 6.48279 11.062 6.19965 11.4157 6.19965C11.7694 6.19965 12.0561 6.48279 12.0561 6.83205V7.10729C13.2678 6.91163 14.4156 6.62499 15.4402 6.24738C14.8528 4.73656 13.565 3.59032 11.9764 3.17253ZM8.75833 1.36335C8.26153 1.23195 7.73846 1.23195 7.24166 1.36335C6.42162 1.58024 5.77366 2.15353 5.45027 2.88709C7.13653 2.58743 8.86346 2.58743 10.5497 2.88709C10.2263 2.15353 9.57837 1.58024 8.75833 1.36335Z" fill="#878787" fill-opacity="0.8"/>
<path d="M10.7752 8.54954V9.78325C10.7752 10.1325 11.062 10.4156 11.4157 10.4156C11.7694 10.4156 12.0561 10.1325 12.0561 9.78325V8.38767C13.3891 8.18419 14.6571 7.8772 15.7939 7.46668C16.1079 8.88823 16.0624 10.3729 15.6624 11.7758C15.0964 13.7616 13.4424 15.2796 11.388 15.6761C9.1505 16.108 6.8495 16.108 4.61203 15.6761C2.55764 15.2796 0.903645 13.7616 0.337555 11.7758C-0.0623568 10.3729 -0.107878 8.88823 0.20606 7.46668C1.34286 7.87719 2.61086 8.18419 3.94388 8.38767V9.78325C3.94388 10.1325 4.23062 10.4156 4.58432 10.4156C4.93803 10.4156 5.22476 10.1325 5.22476 9.78325V8.54954C7.04875 8.7337 8.95125 8.7337 10.7752 8.54954Z" fill="#878787" fill-opacity="0.8"/>
</svg>
